<svg width="226" height="69" viewBox="0 0 226 69" fill="none" xmlns="http://www.w3.org/2000/svg">
<mask id="mask0_1_109" style="mask-type:luminance" maskUnits="userSpaceOnUse" x="0" y="23" width="26" height="46">
<path d="M0 23.5989H25.8476V69H0V23.5989Z" fill="white"/>
</mask>
<g mask="url(#mask0_1_109)">
<path d="M7.48525 23.7838L21.785 42.6527C22.1546 43.1456 22.5037 43.6521 22.8254 44.1792C23.1472 44.7029 23.4415 45.2402 23.7085 45.7947C23.9788 46.3491 24.2184 46.9139 24.4306 47.4923C24.6463 48.0707 24.8311 48.656 24.9851 49.2515C25.1391 49.8471 25.2658 50.446 25.3616 51.0552C25.4574 51.661 25.5224 52.2737 25.5601 52.8863C25.5943 53.5024 25.6012 54.1151 25.5772 54.7311C25.5533 55.3438 25.4985 55.9564 25.4129 56.5657C25.3274 57.1749 25.211 57.7807 25.0672 58.3762C24.9235 58.9752 24.7489 59.5639 24.547 60.1457C24.3451 60.7276 24.1158 61.2957 23.8556 61.857C23.5989 62.4149 23.3114 62.9591 23 63.4896C22.6885 64.0201 22.3497 64.5335 21.9869 65.0298C21.6241 65.5295 21.2408 66.0087 20.83 66.4673C20.4193 66.9259 19.9881 67.364 19.5363 67.7816C19.0811 68.1991 18.6088 68.5927 18.1159 68.9658L3.81963 50.0935C3.44999 49.604 3.10088 49.0941 2.77915 48.5704C2.45743 48.0468 2.16308 47.506 1.89269 46.9515C1.62573 46.3971 1.38615 45.8323 1.17052 45.2573C0.958319 44.6789 0.773498 44.0936 0.61948 43.4981C0.465463 42.9026 0.338826 42.3002 0.242992 41.691C0.147159 41.0851 0.0821295 40.4725 0.0444805 39.8599C0.0102547 39.2472 0.00340883 38.6311 0.0273674 38.0151C0.0513259 37.4024 0.106088 36.7898 0.191653 36.1805C0.277218 35.5713 0.390165 34.9689 0.537337 34.37C0.681088 33.771 0.852218 33.1823 1.05758 32.6005C1.25951 32.0186 1.48883 31.4505 1.74894 30.8926C2.00564 30.3347 2.28972 29.7905 2.6046 29.26C2.91606 28.7295 3.25147 28.2127 3.61427 27.7164C3.97707 27.2201 4.36382 26.741 4.77454 26.2823C5.18525 25.8203 5.6165 25.3822 6.06829 24.9646C6.5235 24.5471 6.99582 24.1535 7.48525 23.7838Z" fill="#7B2CBF"/>
</g>
<mask id="mask1_1_109" style="mask-type:luminance" maskUnits="userSpaceOnUse" x="10" y="0" width="27" height="46">
<path d="M10.0762 0H36.1428V45.5037H10.0762V0Z" fill="white"/>
</mask>
<g mask="url(#mask1_1_109)">
<path d="M18.0336 0.0240479L32.3299 18.8964C32.703 19.3892 33.0487 19.8958 33.3704 20.4194C33.6921 20.9465 33.9899 21.4839 34.2568 22.0383C34.5272 22.5928 34.7668 23.1575 34.979 23.7359C35.1946 24.3144 35.376 24.8996 35.5335 25.4952C35.6875 26.0907 35.8141 26.6931 35.91 27.3023C36.0058 27.9081 36.0708 28.5208 36.1085 29.1334C36.1427 29.7495 36.1496 30.3621 36.1222 30.9782C36.0982 31.5943 36.0435 32.2069 35.9579 32.8162C35.8723 33.4254 35.7594 34.0278 35.6122 34.6267C35.4685 35.2257 35.2939 35.8144 35.092 36.3962C34.89 36.9781 34.6607 37.5462 34.4006 38.1041C34.1405 38.6654 33.8564 39.2096 33.5415 39.7401C33.2301 40.2706 32.8912 40.784 32.5284 41.2803C32.1656 41.78 31.7789 42.2592 31.3682 42.7178C30.9574 43.1764 30.5262 43.6145 30.0744 44.0321C29.6192 44.4496 29.1469 44.8432 28.654 45.2163L14.3577 26.344C13.9847 25.8511 13.639 25.3446 13.3173 24.8175C12.9955 24.2938 12.7012 23.7531 12.4308 23.202C12.1638 22.6476 11.9208 22.0794 11.7086 21.5044C11.4964 20.926 11.3116 20.3407 11.1542 19.7452C11.0002 19.1496 10.8735 18.5473 10.7777 17.938C10.6819 17.3322 10.6168 16.7196 10.5826 16.1035C10.5449 15.4909 10.5415 14.8748 10.5655 14.2621C10.5894 13.6461 10.6442 13.0334 10.7298 12.4242C10.8153 11.815 10.9317 11.2126 11.0755 10.6136C11.2192 10.0147 11.3938 9.42598 11.5957 8.84414C11.7976 8.26229 12.0304 7.69414 12.2871 7.13283C12.5472 6.57494 12.8313 6.03074 13.1461 5.50024C13.4576 4.96973 13.7964 4.45634 14.1592 3.95664C14.522 3.46036 14.9088 2.98119 15.3195 2.52256C15.7302 2.06393 16.1615 1.62583 16.6167 1.20827C17.0685 0.790715 17.5408 0.397113 18.0336 0.0240479Z" fill="#C77DFF"/>
</g>
<path d="M45.4102 25.1323V34.1372C45.4102 38.2957 48.0387 40.8147 53.4259 40.8147C58.8131 40.8147 61.4212 38.2957 61.4212 34.1372V25.1323H57.3688V34.1372C57.3688 36.3687 56.2735 37.6625 53.4259 37.6625C50.5783 37.6625 49.4831 36.3687 49.4831 34.1372V25.1323H45.4102Z" fill="#FFFDFB"/>
<path d="M63.1724 25.1323V40.4656H67.2213V34.3768H71.7118L75.3055 40.4656H79.9466L75.3911 32.7989L79.9466 25.1323H75.3055L71.7118 31.2211H67.2213V25.1323H63.1724Z" fill="#FFFDFB"/>
<path d="M87.0225 25.1323V40.4656H91.0954V34.3768H98.9811V40.4656H103.033V25.1323H98.9811V31.2211H91.0954V25.1323H87.0225Z" fill="#FFFDFB"/>
<path d="M113.349 24.7831C107.435 24.7831 104.587 27.8293 104.587 32.7989C104.587 37.772 107.435 40.8147 113.349 40.8147C119.26 40.8147 122.087 37.772 122.087 32.7989C122.087 27.8293 119.26 24.7831 113.349 24.7831ZM113.349 27.9388C116.611 27.9388 118.035 29.7767 118.035 32.7989C118.035 35.8211 116.611 37.6625 113.349 37.6625C110.084 37.6625 108.66 35.8211 108.66 32.7989C108.66 29.7767 110.084 27.9388 113.349 27.9388Z" fill="#FFFDFB"/>
<path d="M122.983 25.1323V28.2879H128.131V40.4656H132.183V28.2879H137.307V25.1323H122.983Z" fill="#FFFDFB"/>
<path d="M144.443 25.1323V40.4656H154.78C158.746 40.4656 161.197 37.707 161.197 32.7989C161.197 27.8943 158.986 25.1323 154.78 25.1323H144.443ZM148.516 28.2674H153.246C155.81 28.2674 157.145 29.7117 157.145 32.7989C157.145 35.8896 155.745 37.3339 153.246 37.3339H148.516V28.2674Z" fill="#C77DFF"/>
<path d="M162.817 25.1323V40.4656H176.881V37.3099H166.87V34.2227H174.951V31.3751H166.87V28.2879H176.881V25.1323H162.817Z" fill="#C77DFF"/>
<path d="M183.382 25.1323L177.601 40.4656H181.917L183.077 37.3544H189.625L190.785 40.4656H195.121L189.32 25.1323H183.382ZM188.42 34.2022H184.258L186.339 28.637L188.42 34.2022Z" fill="#C77DFF"/>
<path d="M196.218 25.1323V40.4656H210.278V37.3099H200.291V25.1323H196.218Z" fill="#C77DFF"/>
<path d="M211.109 25.1323V28.2879H219.259L211.109 38.1451V40.4656H225.457L225.478 37.3099H217.332L225.478 27.4562L225.457 25.1323H211.109Z" fill="#C77DFF"/>
</svg>
