<svg width="91" height="87" viewBox="0 0 91 87" fill="none" xmlns="http://www.w3.org/2000/svg">
<path fill-rule="evenodd" clip-rule="evenodd" d="M0.906738 36.4307C0.906738 56.2435 15.2904 72.6618 36.1814 72.6618C56.9599 72.6618 71.3436 56.2435 71.3436 36.4307C71.3436 15.3991 57.2225 0.199646 36.1814 0.199646C15.0279 0.199646 0.906738 15.3991 0.906738 36.4307ZM14.484 36.4307C14.484 23.2679 22.4916 10.5139 36.1814 10.5139C49.7587 10.5139 57.7663 23.2679 57.7663 36.4307C57.7663 48.7797 51.1277 62.3495 36.1814 62.3495C21.1226 62.3495 14.484 48.7797 14.484 36.4307Z" fill="#1E4AA7"/>
<path d="M90.4343 86.2185V81.3877H77.9259C82.933 76.4706 89.4591 70.4996 89.4591 64.0017C89.4591 57.9857 85.6897 55.0452 79.8575 55.0452C76.7445 55.0452 73.5377 55.8366 70.7622 57.2412L71.2498 62.3345C73.2564 61.0162 75.7318 59.8741 78.3198 59.8741C80.8139 59.8741 83.3268 61.1924 83.3268 64.0017C83.3268 69.622 72.9189 78.3159 70.0684 81.082V86.2185H90.4343Z" fill="#1E4AA7"/>
</svg>
