<svg width="124" height="76" viewBox="0 0 124 76" fill="none" xmlns="http://www.w3.org/2000/svg">
<path d="M21.1267 15.3971C18.9639 15.3971 16.8019 15.4857 14.7663 15.7085C5.22492 16.7575 0.370117 22.4964 0.370117 29.3507C0.370117 34.9899 4.46925 40.3041 12.1428 41.7781L21.3913 43.5496C24.768 44.2056 26.5062 44.96 26.5062 46.7962C26.5062 48.2062 25.1943 49.6831 20.8338 49.6831C16.8979 49.6831 11.587 49.0924 8.20738 49.0924C4.96237 49.0924 1.5192 50.5688 1.5192 56.9624C1.5192 57.7497 1.65048 58.7339 1.81417 59.5199C6.66733 60.079 16.8668 60.9648 23.916 60.2091C33.6555 59.1601 38.4439 53.8142 38.4439 46.4684C38.4439 40.1401 34.5412 34.9907 25.4909 33.319L16.6686 31.6792C13.8482 31.1882 12.0784 30.5305 12.0784 28.924C12.0784 27.4168 13.9467 26.1701 18.4417 26.1701C22.8674 26.1701 26.7368 26.6296 29.229 26.6296C32.4757 26.6296 35.8536 25.2511 35.8536 18.8579C35.8536 18.0054 35.7539 17.2166 35.5919 16.3985C32.1306 15.9735 26.6285 15.398 21.1316 15.398H21.1267V15.3971ZM69.6013 20.6601L54.8449 36.7949L66.7144 55.4872C68.9121 58.8971 71.799 60.6337 76.4889 60.6337C79.5694 60.6337 82.1281 59.9141 83.3071 59.3578L69.0102 37.8107L79.1444 27.055L95.7702 53.1591L85.6348 74.5068C86.6534 75.0299 88.7182 75.6543 91.3089 75.7191C95.7707 75.8172 98.1964 74.1126 99.9994 70.1115L123.906 16.7907C122.924 16.2664 120.726 15.6765 118.953 15.6437C115.873 15.5785 111.741 16.2016 109.117 22.4968L101.378 40.7628L86.1952 16.0371C85.2114 15.7409 82.8156 15.3163 81.0774 15.3163C75.7004 15.3155 72.7167 17.2822 69.6013 20.6601ZM42.3018 8.19944V60.3412C43.1542 60.47 44.04 60.5365 45.0569 60.5365C52.7293 60.5365 54.2722 58.274 54.2722 54.3381V0.394583C53.352 0.196847 52.3679 0.0983887 51.3841 0.0983887C43.6453 0.0983887 42.3018 4.23199 42.3018 8.19944Z" fill="white"/>
<g opacity="0.4">
<mask id="mask0_9_155" style="mask-type:luminance" maskUnits="userSpaceOnUse" x="0" y="0" width="124" height="43">
<path d="M105.13 31.9069C105.097 31.9873 105.102 31.9734 105.141 31.8806C105.138 31.8889 105.134 31.8971 105.13 31.9069ZM109.117 22.4964C109.117 22.4964 105.528 30.9687 105.141 31.8806C105.596 30.8509 106.943 30.0042 107.931 29.8655C107.931 29.8655 116.028 28.7251 116.593 28.6463C117.804 28.4773 119.106 27.5046 119.517 26.5828L123.907 16.7903C122.923 16.266 120.725 15.6761 118.954 15.6433C118.828 15.6404 118.701 15.6392 118.569 15.6392C115.535 15.6396 111.633 16.4588 109.117 22.4964ZM14.7667 15.7085C5.22492 16.7575 0.370117 22.4964 0.370117 29.3507C0.370117 33.033 2.11939 36.5775 5.47107 39.0033C5.49732 39.0225 5.52358 39.0422 5.54983 39.0599C5.80705 39.2482 6.27924 39.5579 6.59595 39.7405C10.2951 41.8233 18.3658 42.4489 22.1261 41.9217C24.4608 41.5939 29.4579 40.8908 32.0014 40.5335C34.4743 40.1848 37.3099 40.6926 38.0004 42.958C36.7495 38.2845 32.7985 34.6674 25.49 33.3177L16.669 31.678C13.8474 31.1869 12.0772 30.5293 12.0772 28.9228C12.0772 27.4156 13.9454 26.1689 18.4405 26.1689C22.8661 26.1689 26.7355 26.6283 29.2278 26.6283C32.4744 26.6283 35.8523 25.2499 35.8523 18.8567C35.8523 18.0042 35.7527 17.2153 35.5906 16.3961C32.1282 15.9739 26.6231 15.3971 21.1234 15.3971C18.9627 15.3971 16.8024 15.487 14.7667 15.7085ZM69.603 20.6573L54.8453 36.7945C54.8453 36.7945 55.9177 37.1724 57.2645 36.9828C58.1404 36.8598 67.5936 35.531 69.1217 35.3168C70.5539 35.115 72.2244 34.3991 73.369 33.1856L79.1452 27.055L82.144 31.7658C82.8275 32.8382 84.4398 33.1635 85.9261 32.9547C86.2871 32.9034 92.3554 32.0509 93.3092 31.9167C94.3471 31.7715 96.1489 32.2474 96.6941 33.1331L86.196 16.0367C85.2122 15.7405 82.8164 15.3159 81.0782 15.3159C75.7004 15.3155 72.7179 17.2822 69.603 20.6573ZM42.3018 8.1982V42.9916C42.3018 42.3718 42.3297 42.2663 42.3514 41.71C42.4039 40.2775 43.4763 38.92 45.3031 38.6628C46.6052 38.4802 50.3556 37.9526 51.4723 37.7963C52.4163 37.6634 54.0269 36.9869 54.2718 35.2155V0.394583C53.352 0.196847 52.3679 0.0983887 51.3841 0.0983887C43.6453 0.0983887 42.3018 4.23076 42.3018 8.1982Z" fill="white"/>
</mask>
<g mask="url(#mask0_9_155)">
<path d="M-2.91874 78.6712L-16.1445 -15.4371L127.196 -35.5824L140.423 58.5258L-2.91874 78.6712Z" fill="url(#paint0_linear_9_155)"/>
</g>
</g>
<defs>
<linearGradient id="paint0_linear_9_155" x1="64.1333" y1="35.4579" x2="59.2271" y2="0.548587" gradientUnits="userSpaceOnUse">
<stop stop-color="white"/>
<stop offset="1" stop-color="white" stop-opacity="0"/>
</linearGradient>
</defs>
</svg>
