<svg width="68" height="98" viewBox="0 0 68 98" fill="none" xmlns="http://www.w3.org/2000/svg">
<path d="M56.6687 36.0289C55.9605 35.5174 55.1202 34.8989 54.7361 34.5302C54.9402 34.1852 55.3003 33.65 55.6244 33.198C57.4969 30.4979 61.0259 25.407 61.0259 18.1155C61.0259 13.9286 59.4895 9.39677 55.7684 5.91164C52.0473 2.42651 46.1776 0 37.559 0C29.3846 0 20.1899 2.6644 12.2316 7.31521C8.67855 9.42056 5.73769 11.6686 3.68508 13.8454C1.63248 16.0102 0.444131 18.0918 0.444131 19.876C0.444131 20.7443 0.78023 21.5412 1.41642 22.1597C2.58076 23.2897 4.63336 23.8131 7.26214 24.0986C9.89091 24.3721 13.0959 24.384 16.5529 24.384H17.165C22.4826 24.384 26.2397 24.5268 28.6404 24.8717C29.8408 25.0501 30.705 25.2761 31.2332 25.5378C31.7733 25.8114 31.9414 26.085 31.9534 26.3823C31.9654 26.5013 31.8214 26.7867 31.4853 27.1079C30.3329 28.2498 27.32 29.9388 24.6072 31.8063C23.2508 32.7341 21.9665 33.7213 21.0062 34.7205C20.0579 35.7196 19.4097 36.7426 19.3977 37.8012V37.8488C19.4097 39.1929 20.1299 40.2634 21.2222 41.096C24.5232 43.6058 31.3532 44.26 34.9303 44.9023C37.1389 45.2948 38.3033 46.0799 38.9394 46.9244C39.5756 47.7689 39.6837 48.7205 39.6837 49.5293C39.6837 52.5624 38.5433 55.2387 36.5027 57.0824C34.6902 58.7358 32.5056 59.8063 29.3246 59.8063H28.9405C29.0125 59.1997 29.0485 58.6049 29.0485 58.034C29.0485 54.4656 27.6321 51.48 25.2194 49.4104C22.8187 47.3407 19.4337 46.175 15.5086 46.175C10.6711 46.175 6.78199 48.1614 4.11721 51.1232C1.45243 54.085 0.0120035 57.9864 0 61.8403C0 67.9065 2.82083 73.9966 8.31845 78.5523C13.8161 83.1198 21.9905 86.1529 32.6976 86.1529C41.1841 86.1529 49.7426 83.3815 56.2245 78.5523C61.5901 74.5438 68 67.2523 68 55.2744C68 44.2957 60.5818 38.8717 56.6687 36.0289ZM22.8907 36.802C24.0791 35.6245 26.5278 33.9711 28.3523 32.8173C30.1409 31.6754 31.7493 30.6525 32.9377 29.6415C34.114 28.6185 34.8823 27.5837 34.8823 26.3823C34.8823 25.4426 34.5102 24.5743 33.8139 23.8845C32.5656 22.6712 30.3569 22.1003 27.5961 21.791C24.8353 21.4936 21.5223 21.4817 18.0893 21.4817H17.141C14.3082 21.4817 12.0515 21.446 10.251 21.3747C12.7477 20.4112 15.6526 18.8768 18.8095 17.2116C23.935 14.4996 29.6007 11.4902 34.9423 10.1461C33.7059 11.5378 32.9137 13.1079 32.9017 14.4639C32.9017 14.7969 33.0097 15.1538 33.2618 15.4274C33.5259 15.7009 33.934 15.8912 34.4861 15.8912C35.4344 15.8912 36.5027 15.5225 37.7391 15.1419C39.4076 14.5947 41.3402 13.9762 43.4648 13.9762C45.3133 13.9762 47.3179 14.4401 49.4545 15.8556C48.0381 15.9507 46.8738 16.3551 46.1536 16.9261C45.3613 17.5327 45.1693 18.2107 45.1813 18.6865C45.1933 19.4596 45.7335 20.0544 46.4177 20.8275C47.522 22.0527 48.9504 23.6585 48.9624 26.2515C48.9624 28.1427 48.2302 30.1529 47.1499 31.6873C47.1499 31.5803 47.1619 31.4613 47.1619 31.3543C47.1619 30.034 46.8618 28.559 46.1416 27.7145C45.6974 27.2268 45.1213 26.9414 44.4611 26.9414C43.3447 26.9533 42.3725 27.7978 40.932 28.9754C39.9117 29.808 38.6394 30.8785 37.0429 31.8777C30.2969 36.0884 26.6838 37.7179 24.1271 37.9201C23.1548 37.9677 21.7384 37.9439 22.8907 36.802ZM29.0726 62.554C32.8657 62.554 36.0346 61.4121 38.4833 59.1878C41.1001 56.8326 42.5885 53.2999 42.5885 49.5055C42.5885 47.6856 42.0124 46.175 40.968 45.0093C46.6217 46.3534 52.5034 49.2319 55.7684 53.5616C54.304 53.0858 53.2837 52.9669 52.2394 52.9669C51.1831 52.9788 50.3428 54.0731 50.3428 55.322C50.3428 55.9762 50.5949 56.7137 50.895 57.6415C51.3631 59.0807 51.9753 60.9363 51.9753 63.1487C51.9753 65.1946 51.4591 67.5378 49.8387 70.1546C49.7906 68.0374 49.2145 66.3483 48.4823 65.4444C47.9061 64.7426 47.2819 64.5641 46.8618 64.576C46.1896 64.576 45.6614 64.9091 45.2293 65.4087C44.7852 65.9201 44.4131 66.5981 43.9809 67.3832C42.4205 70.1546 39.9718 74.5675 32.3135 76.8513C33.0097 75.6618 33.3698 74.4486 33.3698 73.4851C33.3698 73.1045 33.3098 72.7477 33.1898 72.4503C32.9617 71.8675 32.4455 71.5225 31.8694 71.5225H31.8574C31.0171 71.5582 30.0448 71.8199 28.9165 72.141C27.152 72.6287 25.0154 73.2234 22.6627 73.2234C20.2259 73.2234 17.5612 72.593 14.8244 70.5353C15.7726 70.3925 16.6129 70.0595 17.2251 69.548C17.7292 69.1198 18.0413 68.5607 18.0413 67.9779C18.0293 67.0858 17.3211 66.4792 16.5169 65.7536C15.3405 64.6593 13.9481 63.3747 13.9481 61.198C13.9481 60.5675 14.0681 59.8658 14.3442 59.0688C14.5963 59.7587 14.9564 60.3772 15.4245 60.9006C16.1447 61.6619 16.997 62.1376 17.8372 62.1376C18.7135 62.1495 19.2417 61.7332 19.4577 61.2099C19.6858 60.6865 19.6738 60.0799 19.6738 59.616C19.6738 59.0807 19.9259 58.5692 20.322 58.1886C20.7301 57.808 21.2703 57.5701 21.8344 57.5701C23.1188 57.5701 24.1031 58.2838 24.7873 59.3424C25.4595 60.401 25.8196 61.8165 25.8196 63.1368C25.8196 63.9575 25.6876 64.7426 25.4115 65.3968L25.1234 66.0986L25.7356 65.6347C26.8879 64.7426 27.7882 63.4817 28.2083 62.5658C28.4604 62.554 28.7725 62.554 29.0726 62.554ZM3.99718 20.7324C3.60106 20.4945 3.34898 20.2447 3.34898 19.876C3.34898 18.8411 4.34528 17.1878 6.16981 15.3798C11.6674 9.92014 24.3912 2.8904 37.559 2.90229C44.221 2.90229 49.6466 4.53186 53.2477 7.58878C56.3686 10.2294 58.0851 13.9643 58.0851 18.1155C58.0851 24.503 55.0482 28.904 53.1996 31.5684C52.2514 32.9125 51.6992 33.7094 51.6872 34.6134C51.6872 35.3271 52.0353 35.9218 52.5875 36.4928C53.1516 37.0637 53.9439 37.6466 54.9162 38.3602C58.7573 41.1793 65.0591 45.7706 65.0591 55.2625C65.0591 66.051 59.3094 72.6049 54.46 76.2209C48.4943 80.6814 40.5479 83.2387 32.6856 83.2387C13.0598 83.2268 2.90485 72.4146 2.90485 61.8165C2.90485 58.6644 4.0932 55.4528 6.25384 53.0382C8.42648 50.6236 11.5594 48.994 15.4966 48.994H15.5086C17.7052 48.994 20.49 49.5055 22.6987 50.9686C24.9073 52.4316 26.5638 54.8224 26.5638 58.7001V59.0331C26.3718 58.593 26.0957 58.1172 25.7116 57.6534C24.9193 56.6899 23.647 55.8335 21.7744 55.8335C19.6618 55.8335 17.8733 57.5463 17.8733 59.5922C17.8733 59.9728 17.8252 60.2107 17.7772 60.3297C17.7652 60.3772 17.7412 60.401 17.7292 60.4129C17.2131 60.401 16.6009 60.0442 16.1207 59.3543C15.6286 58.6525 15.2685 57.6058 15.2685 56.2736C15.2685 56.0119 15.2805 55.7264 15.3165 55.4409L15.3765 54.8224L14.9564 55.2863C12.9758 57.4749 12.2556 59.4494 12.2556 61.1623C12.2556 63.9575 14.1522 65.9439 15.2805 66.9788C15.4846 67.1691 15.7366 67.3951 15.9407 67.5973C16.0367 67.7043 16.1207 67.7995 16.1808 67.8708C16.2048 67.9065 16.2288 67.9422 16.2408 67.966C16.2408 67.9779 16.2528 67.9779 16.2528 67.9898C16.2408 68.0969 16.0247 68.3585 15.5086 68.5608C14.9444 68.7986 14.0441 68.9771 12.7477 68.9771C12.3036 68.9771 11.7995 68.9533 11.2593 68.9057L10.7672 68.8581L11.0793 69.2387C14.8364 73.6754 18.9896 74.8887 22.5906 74.8887C25.2434 74.8887 27.6081 74.2345 29.3126 73.7587C30.0328 73.5565 30.8371 73.2591 31.2812 73.2591C31.4733 73.2591 31.5453 73.3067 31.5813 73.3543C31.6173 73.4019 31.6653 73.5208 31.6533 73.6873C31.6533 74.1988 31.3532 75.1385 30.8371 76.102C30.3209 77.0654 29.6007 78.0765 28.8085 78.7901L28.3283 79.2184L28.9765 79.1351C39.9598 77.7315 43.6208 71.4274 45.4334 68.1801C45.7335 67.633 46.0215 67.1334 46.2736 66.7766C46.5257 66.4078 46.7658 66.2294 46.8258 66.2532C46.9218 66.2532 47.1019 66.3483 47.2819 66.61C47.8221 67.407 48.2782 69.3934 48.2782 71.463C48.2782 72.3551 48.1942 73.2829 48.0021 74.1274L47.8701 74.7579L48.3502 74.3178C52.4914 70.5115 53.6318 66.5149 53.6318 63.1844C53.6318 60.6389 52.9716 58.4741 52.5034 57.0824C52.2514 56.3093 52.0353 55.6194 52.0353 55.2863C52.0353 55.0127 52.0833 54.87 52.1433 54.7986C52.1913 54.7273 52.2874 54.6797 52.4674 54.6321C54.2199 54.6321 56.2966 55.2506 58.7933 56.4282L59.2854 56.6542L59.0694 56.1665C55.6844 48.3161 48.1462 44.9499 40.812 43.1181C37.1389 42.2022 33.5019 41.6551 30.441 41.1317C28.2203 40.7511 26.2877 40.3704 24.8833 39.8709C24.6553 39.7757 24.4152 39.6687 24.1991 39.5616C28.3884 39.0382 33.4538 36.1122 37.9552 33.2455C39.6477 32.175 40.956 31.0807 42.0004 30.2124C42.5525 29.7604 43.0567 29.3441 43.4888 29.0467C43.9089 28.7375 44.281 28.5709 44.4371 28.5828C44.5931 28.5828 44.7132 28.6423 44.8572 28.7969C45.2653 29.237 45.5174 30.4503 45.5054 31.7825C45.5054 32.853 45.3613 33.9949 45.0973 34.9227L44.9532 35.4342L45.4094 35.1487C48.9744 32.8768 50.6909 29.4274 50.6909 26.2039C50.6909 22.9686 48.8784 20.9465 47.714 19.65C47.534 19.4477 47.3299 19.2099 47.1619 19.0076C47.0298 18.8411 46.9218 18.6746 46.8858 18.6151C46.9098 18.5319 47.0058 18.3653 47.2099 18.2226C47.9541 17.6636 49.2385 17.3186 50.7149 17.3305C51.4711 17.3305 52.2754 17.4138 53.0916 17.6041L53.6558 17.7349L53.3077 17.2829C50.2348 13.3696 46.7057 12.2515 43.5608 12.2515C41.0881 12.2515 38.8434 12.9414 37.2109 13.4647C36.4187 13.7264 35.3144 14.0595 34.8342 14.0595C34.7742 14.0595 34.7262 14.0595 34.7022 14.0476C34.7142 13.4766 35.1223 12.5132 35.9146 11.5021C36.7188 10.4554 37.9072 9.3373 39.4316 8.4333L39.9838 8.10025L39.3356 8.05268C39.0595 8.02889 38.7714 8.01699 38.4713 8.01699C32.1575 8.02889 24.0071 12.5726 17.9933 15.6415C14.2362 17.6041 6.36187 22.124 3.99718 20.7324ZM2.67679 91.1011V89.5786H9.5188V91.1011H7.02207V97.8454H5.18552V91.1011H2.67679ZM11.7395 89.5786V92.695H11.7755C11.9915 92.35 12.2556 92.0884 12.5797 91.9337C12.9038 91.7791 13.2279 91.6958 13.54 91.6958C13.9841 91.6958 14.3442 91.7553 14.6323 91.8743C14.9204 91.9932 15.1365 92.1597 15.3045 92.3738C15.4726 92.5879 15.5806 92.8496 15.6526 93.147C15.7246 93.4443 15.7486 93.7893 15.7486 94.158V97.8454H14.0921V94.4554C14.0921 93.9677 14.0201 93.5871 13.8641 93.3492C13.708 93.1113 13.4319 92.9805 13.0358 92.9805C12.5797 92.9805 12.2556 93.1113 12.0515 93.3849C11.8475 93.6466 11.7515 94.0867 11.7515 94.6933V97.8335H10.083V89.5548H11.7395M18.1133 91.8624V92.9686H18.1373C18.2094 92.7901 18.3174 92.6117 18.4494 92.4571C18.5815 92.3025 18.7375 92.1597 18.9056 92.0527C19.0736 91.9337 19.2657 91.8505 19.4577 91.791C19.6498 91.7315 19.8538 91.6958 20.0699 91.6958C20.1779 91.6958 20.298 91.7196 20.43 91.7553V93.2897C20.358 93.2778 20.262 93.2659 20.1539 93.254C20.0459 93.2421 19.9379 93.2421 19.8418 93.2421C19.5417 93.2421 19.2777 93.2897 19.0736 93.3968C18.8696 93.5038 18.6895 93.6347 18.5695 93.8131C18.4374 93.9915 18.3534 94.1937 18.2934 94.4197C18.2334 94.6576 18.2094 94.9074 18.2094 95.1691V97.8691H16.5529V91.8743H18.1133M22.6507 96.4061C22.9027 96.644 23.2628 96.7629 23.731 96.7629C24.0671 96.7629 24.3552 96.6797 24.5952 96.5132C24.8353 96.3466 24.9913 96.1682 25.0394 95.9898H26.4918C26.2637 96.7035 25.9036 97.2268 25.4115 97.5242C24.9313 97.8335 24.3432 97.9881 23.659 97.9881C23.1788 97.9881 22.7587 97.9167 22.3746 97.7621C21.9905 97.6075 21.6664 97.3934 21.4023 97.1198C21.1382 96.8462 20.9342 96.5132 20.7901 96.1206C20.6461 95.7281 20.5741 95.3118 20.5741 94.8479C20.5741 94.3959 20.6461 93.9796 20.7901 93.599C20.9342 93.2065 21.1502 92.8734 21.4263 92.5998C21.7024 92.3144 22.0265 92.1003 22.3986 91.9337C22.7707 91.7672 23.1908 91.6839 23.659 91.6839C24.1751 91.6839 24.6192 91.7791 25.0034 91.9813C25.3875 92.1835 25.6996 92.4452 25.9396 92.7782C26.1917 93.1113 26.3598 93.4919 26.4798 93.9201C26.5878 94.3483 26.6238 94.7884 26.5998 95.2523H22.2425C22.2545 95.7876 22.3986 96.1801 22.6507 96.4061ZM24.5232 93.254C24.3312 93.0399 24.0191 92.9329 23.6229 92.9329C23.3589 92.9329 23.1308 92.9805 22.9628 93.0637C22.7947 93.1589 22.6507 93.2659 22.5426 93.3968C22.4346 93.5276 22.3626 93.6704 22.3266 93.8131C22.2786 93.9558 22.2545 94.0867 22.2545 94.2056H24.9553C24.8593 93.7893 24.7153 93.48 24.5232 93.254ZM29.1326 96.4061C29.3846 96.644 29.7447 96.7629 30.2129 96.7629C30.549 96.7629 30.8371 96.6797 31.0771 96.5132C31.3172 96.3466 31.4613 96.1682 31.5213 95.9898H32.9857C32.7576 96.7035 32.3975 97.2268 31.9054 97.5242C31.4252 97.8335 30.8371 97.9881 30.1529 97.9881C29.6727 97.9881 29.2526 97.9167 28.8685 97.7621C28.4844 97.6075 28.1603 97.3934 27.8962 97.1198C27.6321 96.8462 27.4281 96.5132 27.284 96.1206C27.14 95.7281 27.068 95.3118 27.068 94.8479C27.068 94.3959 27.14 93.9796 27.296 93.599C27.4401 93.2065 27.6561 92.8734 27.9322 92.5998C28.2083 92.3144 28.5324 92.1003 28.9045 91.9337C29.2766 91.7672 29.6967 91.6839 30.1649 91.6839C30.681 91.6839 31.1252 91.7791 31.5093 91.9813C31.8934 92.1835 32.2055 92.4452 32.4455 92.7782C32.6976 93.1113 32.8657 93.4919 32.9737 93.9201C33.0817 94.3483 33.1177 94.7884 33.0937 95.2523H28.7365C28.7485 95.7876 28.8805 96.1801 29.1326 96.4061ZM31.0171 93.254C30.8251 93.0399 30.513 92.9329 30.1169 92.9329C29.8528 92.9329 29.6367 92.9805 29.4567 93.0637C29.2766 93.1589 29.1446 93.2659 29.0365 93.3968C28.9285 93.5276 28.8565 93.6704 28.8085 93.8131C28.7605 93.9558 28.7365 94.0867 28.7365 94.2056H31.4372C31.3532 93.7893 31.2092 93.48 31.0171 93.254ZM33.922 96.0612H35.7585V97.8454H33.922V96.0612ZM39.6237 92.9329C39.3596 92.9329 39.1315 92.9923 38.9635 93.1113C38.7834 93.2302 38.6394 93.3849 38.5193 93.5752C38.4113 93.7655 38.3273 93.9796 38.2793 94.2056C38.2312 94.4316 38.2072 94.6576 38.2072 94.8836C38.2072 95.0977 38.2312 95.3237 38.2793 95.5497C38.3273 95.7757 38.3993 95.9779 38.5073 96.1563C38.6154 96.3347 38.7594 96.4894 38.9394 96.5964C39.1195 96.7154 39.3356 96.7748 39.5996 96.7748C39.9958 96.7748 40.3079 96.6678 40.5239 96.4418C40.74 96.2277 40.872 95.9303 40.932 95.5497H42.5285C42.4205 96.3466 42.1084 96.9533 41.5922 97.3696C41.0761 97.7859 40.4159 98 39.6117 98C39.1555 98 38.7474 97.9286 38.3633 97.774C37.9912 97.6194 37.6671 97.4172 37.403 97.1436C37.1389 96.87 36.9349 96.5488 36.7788 96.1801C36.6348 95.7995 36.5628 95.3951 36.5628 94.9431C36.5628 94.4792 36.6348 94.051 36.7668 93.6466C36.8989 93.254 37.1029 92.9091 37.367 92.6117C37.6311 92.3262 37.9552 92.1003 38.3393 91.9337C38.7234 91.7672 39.1555 91.6839 39.6477 91.6839C40.0078 91.6839 40.3559 91.7315 40.68 91.8267C41.0161 91.9218 41.3041 92.0646 41.5682 92.2549C41.8323 92.4452 42.0484 92.6831 42.2044 92.9567C42.3605 93.2421 42.4565 93.5752 42.4805 93.9558H40.86C40.752 93.2778 40.3319 92.9329 39.6237 92.9329ZM43.2607 93.5514C43.4048 93.1589 43.6208 92.8258 43.8969 92.5522C44.173 92.2787 44.4971 92.0646 44.8812 91.9099C45.2653 91.7553 45.6974 91.6839 46.1656 91.6839C46.6457 91.6839 47.0778 91.7553 47.462 91.9099C47.8461 92.0646 48.1822 92.2668 48.4463 92.5522C48.7223 92.8258 48.9264 93.1589 49.0824 93.5514C49.2265 93.9439 49.3105 94.3721 49.3105 94.8598C49.3105 94.8598 49.2385 95.7757 49.0824 96.1563C48.9384 96.5488 48.7223 96.87 48.4463 97.1436C48.1702 97.4172 47.8461 97.6313 47.462 97.774C47.0778 97.9167 46.6457 97.9881 46.1656 97.9881C45.6854 97.9881 45.2653 97.9167 44.8812 97.774C44.4971 97.6194 44.173 97.4172 43.8969 97.1436C43.6208 96.87 43.4168 96.537 43.2607 96.1563C43.1167 95.7757 43.0327 95.3356 43.0327 94.8598C43.0447 94.384 43.1167 93.9439 43.2607 93.5514ZM44.7732 95.5616C44.8212 95.7876 44.9052 95.9898 45.0132 96.1801C45.1213 96.3585 45.2773 96.5013 45.4574 96.6083C45.6494 96.7154 45.8775 96.7748 46.1536 96.7748C46.4297 96.7748 46.6697 96.7154 46.8618 96.6083C47.0538 96.5013 47.2099 96.3585 47.3179 96.1801C47.438 96.0017 47.51 95.7876 47.558 95.5616C47.606 95.3356 47.63 95.0977 47.63 94.8598C47.63 94.6219 47.606 94.384 47.558 94.1461C47.51 93.9201 47.4259 93.706 47.3179 93.5395C47.2099 93.3611 47.0538 93.2183 46.8618 93.0994C46.6697 92.9805 46.4297 92.9329 46.1536 92.9329C45.8775 92.9329 45.6374 92.9924 45.4574 93.0994C45.2653 93.2183 45.1213 93.3611 45.0132 93.5395C44.9052 93.7179 44.8212 93.9201 44.7732 94.1461C44.7252 94.384 44.7011 94.61 44.7011 94.8598C44.7011 95.0977 44.7252 95.3356 44.7732 95.5616ZM50.0427 96.0612H51.8793V97.8454H50.0427V96.0612ZM56.9688 97.8454V97.0127H56.9327C56.7167 97.3577 56.4526 97.6075 56.1165 97.7621C55.7804 97.9167 55.4323 98 55.0842 98C54.6401 98 54.268 97.9405 53.9919 97.8216C53.7038 97.7026 53.4877 97.548 53.3197 97.3339C53.1516 97.1198 53.0436 96.8581 52.9716 96.5607C52.8996 96.2515 52.8755 95.9184 52.8755 95.5497V91.8624H54.532V95.2404C54.532 95.74 54.6041 96.1087 54.7721 96.3466C54.9282 96.5845 55.2042 96.7154 55.6004 96.7154C56.0565 96.7154 56.3806 96.5845 56.5846 96.311C56.7887 96.0493 56.8847 95.6092 56.8847 94.9907V91.8505H58.5412V97.8454H56.9688ZM61.0139 89.5786V94.0153L63.1026 91.8624H65.0711L62.7905 94.0629L65.3232 97.8454H63.3186L61.6501 95.1691L61.0139 95.7876V97.8454H59.3455V89.5786H61.0139Z" fill="white"/>
</svg>
