<svg width="89" height="89" viewBox="0 0 89 89" fill="none" xmlns="http://www.w3.org/2000/svg">
<path d="M88.3701 44.1892C88.3701 68.5935 68.5933 88.3785 44.1892 88.3785C19.7848 88.3785 0 68.5935 0 44.1892C0 19.785 19.7848 0 44.1892 0C68.5935 0 88.3701 19.785 88.3701 44.1892Z" fill="#EE3023"/>
<path d="M44.5386 68.829C32.4014 68.8703 19.7686 58.5103 19.7121 41.8674C19.6715 30.8665 25.6142 20.2721 33.1968 13.9882C40.6007 7.86688 50.7409 3.92946 59.931 3.89676C61.1163 3.89676 62.3585 3.99423 63.1134 4.25395C55.0762 5.91826 48.6788 13.4036 48.7032 21.8874C48.7032 22.1715 48.7274 22.4719 48.7596 22.6099C62.212 25.8898 68.3172 34.0084 68.3578 45.2362C68.3903 56.4723 59.5255 68.7805 44.5386 68.829Z" fill="white"/>
</svg>
